<?xml version="1.0" standalone="no"?><!DOCTYPE svg PUBLIC "-//W3C//DTD SVG 1.1//EN" "http://www.w3.org/Graphics/SVG/1.1/DTD/svg11.dtd"><svg t="1667800138622" class="icon" viewBox="0 0 1024 1024" version="1.1" xmlns="http://www.w3.org/2000/svg" p-id="2680" xmlns:xlink="http://www.w3.org/1999/xlink" width="200" height="200"><path d="M511.488 0C228.864 0 0 229.376 0 512s228.864 512 511.488 512C794.624 1024 1024 794.624 1024 512S794.624 0 511.488 0z m354.816 307.2h-151.04a801.28 801.28 0 0 0-70.656-182.272A411.136 411.136 0 0 1 866.304 307.2zM512 104.448c42.496 61.44 75.776 129.536 97.792 202.752H414.208C436.224 233.984 469.504 165.888 512 104.448zM115.712 614.4C107.52 581.632 102.4 547.328 102.4 512s5.12-69.632 13.312-102.4h173.056c-4.096 33.792-7.168 67.584-7.168 102.4 0 34.816 3.072 68.608 7.168 102.4H115.712z m41.984 102.4h151.04c16.384 64 39.936 125.44 70.656 182.272A408.9344 408.9344 0 0 1 157.696 716.8z m151.04-409.6H157.696a408.9344 408.9344 0 0 1 221.696-182.272A801.28 801.28 0 0 0 308.736 307.2zM512 919.552c-42.496-61.44-75.776-129.536-97.792-202.752h195.584c-22.016 73.216-55.296 141.312-97.792 202.752zM631.808 614.4H392.192c-4.608-33.792-8.192-67.584-8.192-102.4 0-34.816 3.584-69.12 8.192-102.4h239.616c4.608 33.28 8.192 67.584 8.192 102.4 0 34.816-3.584 68.608-8.192 102.4z m12.8 284.672c30.72-56.832 54.272-118.272 70.656-182.272h151.04a411.136 411.136 0 0 1-221.696 182.272zM735.232 614.4c4.096-33.792 7.168-67.584 7.168-102.4 0-34.816-3.072-68.608-7.168-102.4h173.056c8.192 32.768 13.312 67.072 13.312 102.4s-5.12 69.632-13.312 102.4h-173.056z" p-id="2681" fill="#e6e6e6"></path></svg>